<svg version="1.1" id="Layer_1" xmlns="http://www.w3.org/2000/svg" xmlns:xlink="http://www.w3.org/1999/xlink" x="0px" y="0px"
	 width="100%" viewBox="0 0 362 137" enable-background="new 0 0 362 137" xml:space="preserve">
<path fill="#010101" opacity="1.000000" stroke="none" 
	d="
M227.000000,138.000000 
	C151.333344,138.000000 76.166687,138.000000 1.000020,138.000000 
	C1.000013,92.333351 1.000013,46.666695 1.000007,1.000032 
	C121.666634,1.000022 242.333267,1.000022 362.999939,1.000011 
	C362.999939,46.666630 362.999939,92.333260 362.999969,137.999939 
	C317.833344,138.000000 272.666656,138.000000 227.000000,138.000000 
M262.500000,33.999779 
	C245.707199,33.999779 228.914413,33.999779 211.765884,33.999779 
	C207.493317,59.379341 203.284348,84.381073 199.042679,109.577042 
	C239.226181,109.577042 278.819672,109.577042 318.745697,109.577042 
	C322.971710,84.409630 327.162842,59.450016 331.436371,33.999779 
	C308.104156,33.999779 285.802063,33.999779 262.500000,33.999779 
M53.298347,48.762821 
	C53.322853,55.417118 53.142212,62.080330 53.430775,68.723160 
	C53.707630,75.096527 56.206055,78.327400 61.090584,79.617615 
	C65.558876,80.797890 70.034340,81.950996 74.877312,83.212631 
	C75.372780,82.347870 76.250481,80.815994 77.127594,79.285141 
	C75.819374,78.113571 74.770836,77.174553 73.926659,76.418541 
	C74.633263,74.289215 75.667709,72.572823 75.700699,70.837387 
	C75.871346,61.862114 76.125740,52.864410 75.663132,43.910065 
	C75.382103,38.470528 71.447716,35.464077 65.935989,35.041042 
	C57.774586,34.414639 53.992710,38.245640 53.298347,48.762821 
M158.278946,47.456764 
	C158.022049,48.251720 157.765152,49.046680 157.508270,49.841640 
	C157.311707,49.805717 157.115158,49.769798 156.918594,49.733879 
	C156.918594,44.950089 156.918594,40.166298 156.918594,35.194996 
	C153.906372,35.194996 151.167465,35.194996 148.335205,35.194996 
	C148.335205,50.209244 148.335205,65.063644 148.335205,79.682823 
	C151.426910,79.682823 154.176682,79.682823 157.194611,79.682823 
	C157.194611,73.531357 157.194611,67.696472 157.194611,61.861591 
	C157.398743,61.836231 157.602890,61.810871 157.807022,61.785515 
	C159.265610,67.819611 160.724182,73.853714 162.132004,79.677811 
	C165.403320,79.677811 168.280746,79.677811 171.969940,79.677811 
	C166.228760,64.795067 163.579559,50.176491 171.211182,35.153557 
	C167.133804,35.153557 164.340103,35.153557 161.307755,35.153557 
	C160.378098,39.066807 159.466400,42.904415 158.278946,47.456764 
M103.154396,38.623783 
	C102.521286,31.094572 97.301796,36.923218 94.228699,34.334953 
	C94.228699,46.126495 94.310211,56.597973 94.137398,67.065247 
	C94.112587,68.568115 92.861023,70.050720 92.177193,71.542702 
	C91.434357,70.099319 90.222153,68.710007 90.048332,67.201073 
	C89.707451,64.241959 89.943611,61.216225 89.943306,58.218060 
	C89.942528,50.602184 89.943047,42.986305 89.943047,35.222771 
	C86.768669,35.222771 84.039818,35.222771 80.995338,35.222771 
	C80.995338,46.245724 80.919670,57.039135 81.019920,67.830910 
	C81.096489,76.073570 84.860054,80.041138 92.224792,79.992165 
	C99.431625,79.944244 102.978813,76.194603 103.095924,68.080101 
	C103.232918,58.587864 103.144867,49.092384 103.154396,38.623783 
M130.193222,67.146049 
	C130.199020,60.327709 130.099823,53.506008 130.317505,46.694435 
	C130.352417,45.602123 131.803894,44.555080 132.600525,43.487114 
	C133.214127,44.530987 134.203796,45.521973 134.359650,46.630215 
	C134.646011,48.666435 134.441330,50.771709 134.441330,52.727631 
	C137.921722,52.727631 140.666733,52.727631 143.482895,52.727631 
	C143.482895,49.606514 143.739029,46.779354 143.427338,44.016243 
	C142.853073,38.925407 139.799545,35.958679 134.803009,35.127853 
	C126.897163,33.813263 121.664566,37.885086 121.232452,46.361195 
	C120.843468,53.991291 120.912560,61.662979 121.175842,69.302666 
	C121.411446,76.139069 125.745132,80.011086 132.408813,80.008385 
	C139.462311,80.005531 143.197052,76.630600 143.717834,69.535065 
	C143.930542,66.636925 143.752991,63.710140 143.752991,60.794971 
	C140.356888,60.794971 137.612152,60.794971 134.439865,60.794971 
	C134.439865,63.388569 134.662735,65.713036 134.351166,67.963516 
	C134.180969,69.192734 133.106018,70.296692 132.439102,71.457138 
	C131.693390,70.334366 130.947693,69.211594 130.193222,67.146049 
M112.408752,80.015984 
	C113.817169,79.912621 115.225578,79.809258 116.441849,79.720001 
	C116.441849,64.547684 116.441849,49.857933 116.441849,35.183979 
	C113.493523,35.183979 110.887527,35.183979 107.889694,35.183979 
	C107.889694,49.450802 107.958260,63.521904 107.836838,77.591362 
	C107.809738,80.731247 109.796722,79.910606 112.408752,80.015984 
M142.499954,92.314316 
	C158.213593,92.314316 173.927246,92.314316 189.640884,92.314316 
	C189.636673,92.017288 189.632462,91.720261 189.628250,91.423233 
	C142.314636,91.423233 95.001030,91.423233 47.687428,91.423233 
	C47.687180,91.720367 47.686932,92.017494 47.686684,92.314629 
	C78.957771,92.314629 110.228851,92.314629 142.499954,92.314316 
z"/>
<path fill="#FD1717" opacity="1.000000" stroke="none" 
	d="
M263.000000,33.999779 
	C285.802063,33.999779 308.104156,33.999779 331.436371,33.999779 
	C327.162842,59.450016 322.971710,84.409630 318.745697,109.577042 
	C278.819672,109.577042 239.226181,109.577042 199.042679,109.577042 
	C203.284348,84.381073 207.493317,59.379341 211.765884,33.999779 
	C228.914413,33.999779 245.707199,33.999779 263.000000,33.999779 
M279.269745,72.355453 
	C276.742554,78.410583 274.215363,84.465706 271.543793,90.866760 
	C274.341949,90.866760 276.479980,90.866760 278.759003,90.866760 
	C280.294647,87.171120 281.815948,83.509918 283.337280,79.848717 
	C283.528198,79.929573 283.719086,80.010437 283.910004,80.091301 
	C283.910004,83.664177 283.910004,87.237061 283.910004,90.802505 
	C286.308258,90.802505 288.416321,90.802505 291.253540,90.802505 
	C289.648804,77.840149 292.330841,65.782204 298.420105,54.766373 
	C290.857574,51.207981 290.377258,57.733265 288.129578,61.584137 
	C287.756989,61.330654 287.384369,61.077175 287.011780,60.823692 
	C287.147644,58.668243 287.283478,56.512794 287.430267,54.183769 
	C285.308624,54.183769 283.187927,54.183769 280.617035,54.183769 
	C280.291107,60.060413 279.971130,65.830070 279.269745,72.355453 
M246.295258,53.991096 
	C242.530151,53.991096 238.765030,53.991096 234.842331,53.991096 
	C232.013947,66.527138 229.300644,78.553024 226.529144,90.836922 
	C229.381042,90.836922 231.504211,90.836922 233.783401,90.836922 
	C235.107101,85.267502 236.401016,79.823364 237.712662,74.304626 
	C240.122467,74.149261 242.233841,74.013130 244.556137,73.863403 
	C245.059326,71.642471 245.526886,69.578705 246.047028,67.282906 
	C243.796402,67.068863 241.746063,66.873871 239.893646,66.697701 
	C238.756012,59.460144 244.264175,61.593674 248.081741,60.901314 
	C247.345245,58.505718 251.518494,55.989738 246.295258,53.991096 
M251.235550,59.701683 
	C248.936050,70.000938 246.636566,80.300186 244.296356,90.781769 
	C249.392319,90.781769 254.142685,90.781769 259.127747,90.781769 
	C259.504517,88.771439 259.847198,86.943169 260.213806,84.987083 
	C257.473663,84.789635 255.411865,84.641060 253.084549,84.473358 
	C255.381531,74.196404 257.596832,64.284836 259.827118,54.306377 
	C257.120087,54.306377 254.879196,54.306377 252.596359,54.306377 
	C252.177155,56.028847 251.827850,57.464085 251.235550,59.701683 
M264.946716,76.349548 
	C263.879700,81.099083 262.812683,85.848610 261.707458,90.768135 
	C264.476013,90.768135 266.577728,90.768135 268.751068,90.768135 
	C271.532867,78.507080 274.264893,66.465263 277.056671,54.160145 
	C274.482025,54.160145 272.368286,54.160145 270.029999,54.160145 
	C268.358795,61.347084 266.710968,68.433395 264.946716,76.349548 
z"/>
<path fill="#F8F8F8" opacity="1.000000" stroke="none" 
	d="
M53.299400,48.301758 
	C53.992710,38.245640 57.774586,34.414639 65.935989,35.041042 
	C71.447716,35.464077 75.382103,38.470528 75.663132,43.910065 
	C76.125740,52.864410 75.871346,61.862114 75.700699,70.837387 
	C75.667709,72.572823 74.633263,74.289215 73.926659,76.418541 
	C74.770836,77.174553 75.819374,78.113571 77.127594,79.285141 
	C76.250481,80.815994 75.372780,82.347870 74.877312,83.212631 
	C70.034340,81.950996 65.558876,80.797890 61.090584,79.617615 
	C56.206055,78.327400 53.707630,75.096527 53.430775,68.723160 
	C53.142212,62.080330 53.322853,55.417118 53.299400,48.301758 
M66.890747,62.351936 
	C66.887344,57.358505 67.038162,52.357075 66.779846,47.376865 
	C66.708923,46.009632 65.413765,44.705891 64.680382,43.373016 
	C63.885296,44.648392 62.446129,45.902397 62.402977,47.202728 
	C62.176792,54.019196 62.198463,60.850414 62.393414,67.669098 
	C62.434933,69.121216 63.554089,70.542526 64.176773,71.978027 
	C64.805641,71.889702 65.434517,71.801369 66.063385,71.713043 
	C66.339149,68.907356 66.614914,66.101669 66.890747,62.351936 
z"/>
<path fill="#FCFCFC" opacity="1.000000" stroke="none" 
	d="
M158.416824,47.099396 
	C159.466400,42.904415 160.378098,39.066807 161.307755,35.153557 
	C164.340103,35.153557 167.133804,35.153557 171.211182,35.153557 
	C163.579559,50.176491 166.228760,64.795067 171.969940,79.677811 
	C168.280746,79.677811 165.403320,79.677811 162.132004,79.677811 
	C160.724182,73.853714 159.265610,67.819611 157.807022,61.785515 
	C157.602890,61.810871 157.398743,61.836231 157.194611,61.861591 
	C157.194611,67.696472 157.194611,73.531357 157.194611,79.682823 
	C154.176682,79.682823 151.426910,79.682823 148.335205,79.682823 
	C148.335205,65.063644 148.335205,50.209244 148.335205,35.194996 
	C151.167465,35.194996 153.906372,35.194996 156.918594,35.194996 
	C156.918594,40.166298 156.918594,44.950089 156.918594,49.733879 
	C157.115158,49.769798 157.311707,49.805717 157.508270,49.841640 
	C157.765152,49.046680 158.022049,48.251720 158.416824,47.099396 
z"/>
<path fill="#F8F8F8" opacity="1.000000" stroke="none" 
	d="
M103.154419,39.111046 
	C103.144867,49.092384 103.232918,58.587864 103.095924,68.080101 
	C102.978813,76.194603 99.431625,79.944244 92.224792,79.992165 
	C84.860054,80.041138 81.096489,76.073570 81.019920,67.830910 
	C80.919670,57.039135 80.995338,46.245724 80.995338,35.222771 
	C84.039818,35.222771 86.768669,35.222771 89.943047,35.222771 
	C89.943047,42.986305 89.942528,50.602184 89.943306,58.218060 
	C89.943611,61.216225 89.707451,64.241959 90.048332,67.201073 
	C90.222153,68.710007 91.434357,70.099319 92.177193,71.542702 
	C92.861023,70.050720 94.112587,68.568115 94.137398,67.065247 
	C94.310211,56.597973 94.228699,46.126495 94.228699,34.334953 
	C97.301796,36.923218 102.521286,31.094572 103.154419,39.111046 
z"/>
<path fill="#F5F5F5" opacity="1.000000" stroke="none" 
	d="
M130.197601,67.617432 
	C130.947693,69.211594 131.693390,70.334366 132.439102,71.457138 
	C133.106018,70.296692 134.180969,69.192734 134.351166,67.963516 
	C134.662735,65.713036 134.439865,63.388569 134.439865,60.794971 
	C137.612152,60.794971 140.356888,60.794971 143.752991,60.794971 
	C143.752991,63.710140 143.930542,66.636925 143.717834,69.535065 
	C143.197052,76.630600 139.462311,80.005531 132.408813,80.008385 
	C125.745132,80.011086 121.411446,76.139069 121.175842,69.302666 
	C120.912560,61.662979 120.843468,53.991291 121.232452,46.361195 
	C121.664566,37.885086 126.897163,33.813263 134.803009,35.127853 
	C139.799545,35.958679 142.853073,38.925407 143.427338,44.016243 
	C143.739029,46.779354 143.482895,49.606514 143.482895,52.727631 
	C140.666733,52.727631 137.921722,52.727631 134.441330,52.727631 
	C134.441330,50.771709 134.646011,48.666435 134.359650,46.630215 
	C134.203796,45.521973 133.214127,44.530987 132.600525,43.487110 
	C131.803894,44.555080 130.352417,45.602123 130.317505,46.694435 
	C130.099823,53.506008 130.199020,60.327709 130.197601,67.617432 
z"/>
<path fill="#F6F6F6" opacity="1.000000" stroke="none" 
	d="
M111.936836,80.015976 
	C109.796722,79.910606 107.809738,80.731247 107.836838,77.591362 
	C107.958260,63.521904 107.889694,49.450802 107.889694,35.183979 
	C110.887527,35.183979 113.493523,35.183979 116.441849,35.183979 
	C116.441849,49.857933 116.441849,64.547684 116.441849,79.720001 
	C115.225578,79.809258 113.817169,79.912621 111.936836,80.015976 
z"/>
<path fill="#8E8E8E" opacity="1.000000" stroke="none" 
	d="
M141.999939,92.314468 
	C110.228851,92.314629 78.957771,92.314629 47.686684,92.314629 
	C47.686932,92.017494 47.687180,91.720367 47.687428,91.423233 
	C95.001030,91.423233 142.314636,91.423233 189.628250,91.423233 
	C189.632462,91.720261 189.636673,92.017288 189.640884,92.314316 
	C173.927246,92.314316 158.213593,92.314316 141.999939,92.314468 
z"/>
<path fill="#FFF9F9" opacity="1.000000" stroke="none" 
	d="
M279.460449,71.977592 
	C279.971130,65.830070 280.291107,60.060413 280.617035,54.183769 
	C283.187927,54.183769 285.308624,54.183769 287.430267,54.183769 
	C287.283478,56.512794 287.147644,58.668243 287.011780,60.823692 
	C287.384369,61.077175 287.756989,61.330654 288.129578,61.584137 
	C290.377258,57.733265 290.857574,51.207981 298.420105,54.766373 
	C292.330841,65.782204 289.648804,77.840149 291.253540,90.802505 
	C288.416321,90.802505 286.308258,90.802505 283.910004,90.802505 
	C283.910004,87.237061 283.910004,83.664177 283.910004,80.091301 
	C283.719086,80.010437 283.528198,79.929573 283.337280,79.848717 
	C281.815948,83.509918 280.294647,87.171120 278.759003,90.866760 
	C276.479980,90.866760 274.341949,90.866760 271.543793,90.866760 
	C274.215363,84.465706 276.742554,78.410583 279.460449,71.977592 
z"/>
<path fill="#FFF9F9" opacity="1.000000" stroke="none" 
	d="
M246.761017,53.993526 
	C251.518494,55.989738 247.345245,58.505718 248.081741,60.901314 
	C244.264175,61.593674 238.756012,59.460144 239.893646,66.697701 
	C241.746063,66.873871 243.796402,67.068863 246.047028,67.282906 
	C245.526886,69.578705 245.059326,71.642471 244.556137,73.863403 
	C242.233841,74.013130 240.122467,74.149261 237.712662,74.304626 
	C236.401016,79.823364 235.107101,85.267502 233.783401,90.836922 
	C231.504211,90.836922 229.381042,90.836922 226.529144,90.836922 
	C229.300644,78.553024 232.013947,66.527138 234.842331,53.991096 
	C238.765030,53.991096 242.530151,53.991096 246.761017,53.993526 
z"/>
<path fill="#FFF8F8" opacity="1.000000" stroke="none" 
	d="
M251.357040,59.300499 
	C251.827850,57.464085 252.177155,56.028847 252.596359,54.306377 
	C254.879196,54.306377 257.120087,54.306377 259.827118,54.306377 
	C257.596832,64.284836 255.381531,74.196404 253.084549,84.473358 
	C255.411865,84.641060 257.473663,84.789635 260.213806,84.987083 
	C259.847198,86.943169 259.504517,88.771439 259.127747,90.781769 
	C254.142685,90.781769 249.392319,90.781769 244.296356,90.781769 
	C246.636566,80.300186 248.936050,70.000938 251.357040,59.300499 
z"/>
<path fill="#FFF7F7" opacity="1.000000" stroke="none" 
	d="
M265.004944,75.934631 
	C266.710968,68.433395 268.358795,61.347084 270.029999,54.160145 
	C272.368286,54.160145 274.482025,54.160145 277.056671,54.160145 
	C274.264893,66.465263 271.532867,78.507080 268.751068,90.768135 
	C266.577728,90.768135 264.476013,90.768135 261.707458,90.768135 
	C262.812683,85.848610 263.879700,81.099083 265.004944,75.934631 
z"/>
<path fill="#222222" opacity="1.000000" stroke="none" 
	d="
M66.890717,62.823959 
	C66.614914,66.101669 66.339149,68.907356 66.063385,71.713043 
	C65.434517,71.801369 64.805641,71.889702 64.176773,71.978027 
	C63.554089,70.542526 62.434933,69.121216 62.393414,67.669098 
	C62.198463,60.850414 62.176792,54.019196 62.402977,47.202728 
	C62.446129,45.902397 63.885296,44.648392 64.680382,43.373016 
	C65.413765,44.705891 66.708923,46.009632 66.779846,47.376865 
	C67.038162,52.357075 66.887344,57.358505 66.890717,62.823959 
z"/>
</svg>